<svg width="11" height="16" viewBox="0 0 11 16" fill="none" xmlns="http://www.w3.org/2000/svg">
<path fill-rule="evenodd" clip-rule="evenodd" d="M5.73452 0.286133C7.07993 0.286133 8.17061 1.37681 8.17061 2.72222V8.40643C8.17061 9.75185 7.07993 10.8425 5.73452 10.8425C4.3891 10.8425 3.29843 9.75185 3.29843 8.40643V2.72222C3.29843 1.37681 4.3891 0.286133 5.73452 0.286133ZM9.99569 5.5653C9.65934 5.5653 9.38667 5.83797 9.38667 6.17432V8.4074C9.38667 10.4255 7.75066 12.0615 5.73253 12.0615C3.71441 12.0615 2.0784 10.4255 2.0784 8.4074V6.17432C2.0784 5.83797 1.80573 5.5653 1.46937 5.5653C1.13302 5.5653 0.860352 5.83797 0.860352 6.17432V8.4074C0.861554 10.8618 2.68832 12.9322 5.12351 13.239V14.4976H3.49945C3.1631 14.4976 2.89043 14.7703 2.89043 15.1067C2.89043 15.443 3.1631 15.7157 3.49945 15.7157H7.96561C8.30197 15.7157 8.57464 15.443 8.57464 15.1067C8.57464 14.7703 8.30197 14.4976 7.96561 14.4976H6.34155V13.239C8.77674 12.9322 10.6035 10.8618 10.6047 8.4074V6.17432C10.6047 5.83797 10.332 5.5653 9.99569 5.5653Z" fill="#888888"/>
</svg>
