<svg width="16" height="18" viewBox="0 0 16 18" fill="none" xmlns="http://www.w3.org/2000/svg">
<path fill-rule="evenodd" clip-rule="evenodd" d="M10.912 2.82553C10.912 1.26504 9.64699 0 8.08649 0C6.52599 0 5.26095 1.26504 5.26095 2.82553V5.17578L10.6637 10.5785C10.8232 10.2246 10.912 9.83188 10.912 9.41845V2.82553ZM5.26095 9.06965L0.201879 4.01057C-0.067293 3.7414 -0.067293 3.30499 0.201879 3.03581C0.471051 2.76664 0.907465 2.76664 1.17664 3.03581L14.888 16.7471C15.1571 17.0163 15.1571 17.4527 14.888 17.7219C14.6188 17.9911 14.1824 17.9911 13.9132 17.7219L10.6463 14.455C10.0788 14.7437 9.45405 14.9403 8.79034 15.0239V16.4837H10.674C11.0642 16.4837 11.3804 16.8 11.3804 17.1901C11.3804 17.5803 11.0642 17.8965 10.674 17.8965H5.49389C5.10376 17.8965 4.7875 17.5803 4.7875 17.1901C4.7875 16.8 5.10376 16.4837 5.49389 16.4837H7.37757V15.0239C4.55309 14.668 2.43428 12.2667 2.43289 9.41991V8.15515L3.84828 9.57055C3.92762 11.8415 5.79363 13.6582 8.08396 13.6582C8.61003 13.6582 9.11371 13.5624 9.57849 13.3872L8.41625 12.2249C8.30808 12.2375 8.19804 12.244 8.08649 12.244C6.52599 12.244 5.26095 10.9789 5.26095 9.41845V9.06965ZM12.7257 12.6406L11.7064 11.6213C12.0972 10.9797 12.3223 10.2261 12.3223 9.41991V6.82983C12.3223 6.43971 12.6385 6.12345 13.0286 6.12345C13.4188 6.12345 13.735 6.43971 13.735 6.82983V9.41991C13.7344 10.6104 13.3636 11.7229 12.7257 12.6406Z" fill="#FAFAFA"/>
</svg>
