<?xml version="1.0" encoding="utf-8"?>
<!-- Generator: Adobe Illustrator 23.0.1, SVG Export Plug-In . SVG Version: 6.00 Build 0)  -->
<svg version="1.1" id="Layer_1" xmlns="http://www.w3.org/2000/svg" xmlns:xlink="http://www.w3.org/1999/xlink" x="0px" y="0px"
	 viewBox="0 0 73.27 362.53" style="enable-background:new 0 0 73.27 362.53;" xml:space="preserve">
<g>
	<g>
		<g>
			<path d="M16.36,362.27c50.04-65.98,50.68-156.23,30.75-233.28c-6.19-23.95-14.37-47.33-23.63-70.26
				c-1.34-3.33-2.35,2.18-2.45,3.1c-0.42,3.59-0.44,8.13,0.95,11.56c28.03,69.45,46.83,146.63,21.22,219.75
				c-6.65,18.98-16.06,36.8-28.22,52.83c-1.89,2.49-1.29,7.55-1.03,10.44C14.01,357.1,15.09,363.95,16.36,362.27L16.36,362.27z"/>
		</g>
	</g>
	<g>
		<g>
			<path d="M0.05,56.07C0.03,75.33,0.02,94.6,0,113.86c0,1.16,0.1,8.46,2.05,8.42c1.93-0.05,1.64-7.75,1.64-8.51
				C3.74,78.63,3.79,43.49,3.84,8.34c-0.71,2.74-1.43,5.48-2.14,8.22c23.82,24.93,46.94,50.51,69.35,76.71
				c1.53,1.79,2.11-5.54,2.13-5.97c0.1-2.79,0.47-8.02-1.55-10.38C49.23,50.72,26.1,25.14,2.29,0.21C0.6-1.55,0.15,8.16,0.15,8.43
				C0.1,43.58,0.05,78.72,0,113.86c1.23-0.03,2.46-0.06,3.69-0.09c0.02-19.27,0.03-38.53,0.05-57.8c0-1.16-0.1-8.46-2.05-8.42
				C-0.25,47.61,0.05,55.31,0.05,56.07L0.05,56.07z"/>
		</g>
	</g>
</g>
</svg>
