<svg width="74" height="363" viewBox="0 0 74 363" fill="none" xmlns="http://www.w3.org/2000/svg">
<g clip-path="url(#clip0)">
<path d="M16.36 362.27C66.4 296.29 67.04 206.04 47.11 128.99C40.92 105.04 32.74 81.66 23.48 58.73C22.14 55.4 21.13 60.91 21.03 61.83C20.61 65.42 20.59 69.96 21.98 73.39C50.01 142.84 68.81 220.02 43.2 293.14C36.55 312.12 27.14 329.94 14.98 345.97C13.09 348.46 13.69 353.52 13.95 356.41C14.01 357.1 15.09 363.95 16.36 362.27Z" fill="white"/>
<path d="M0.05 56.07C0.03 75.33 0.02 94.6 0 113.86C0 115.02 0.0999999 122.32 2.05 122.28C3.98 122.23 3.69 114.53 3.69 113.77C3.74 78.63 3.79 43.49 3.84 8.34C3.13 11.08 2.41 13.82 1.7 16.56C25.52 41.49 48.64 67.07 71.05 93.27C72.58 95.06 73.16 87.73 73.18 87.3C73.28 84.51 73.65 79.28 71.63 76.92C49.23 50.72 26.1 25.14 2.29 0.210002C0.6 -1.55 0.15 8.16 0.15 8.43C0.1 43.58 0.05 78.72 0 113.86C1.23 113.83 2.46 113.8 3.69 113.77C3.71 94.5 3.72 75.24 3.74 55.97C3.74 54.81 3.64 47.51 1.69 47.55C-0.25 47.61 0.05 55.31 0.05 56.07Z" fill="white"/>
</g>
<defs>
<clipPath id="clip0">
<rect width="73.27" height="362.53" fill="white"/>
</clipPath>
</defs>
</svg>
