<svg width="14" height="14" viewBox="0 0 14 14" fill="none" xmlns="http://www.w3.org/2000/svg">
<path d="M9.16689 7.00007L13.9144 2.25251C14.0283 2.13855 14.0283 1.9538 13.9144 1.83984L12.1605 0.0855127C12.1057 0.0307904 12.0313 0 11.9541 0C11.8768 0 11.8025 0.0307904 11.7478 0.0855127L7 4.83322L2.25222 0.0855127C2.14278 -0.0239319 1.94898 -0.0239319 1.83954 0.0855127L0.0854775 1.83984C-0.0284925 1.9538 -0.0284925 2.13855 0.0854775 2.25251L4.83311 7.00007L0.0854775 11.7476C-0.0284925 11.8616 -0.0284925 12.0463 0.0854775 12.1603L1.83954 13.9145C1.89426 13.9692 1.96854 14 2.04588 14C2.12322 14 2.1975 13.9692 2.25222 13.9145L7 9.16678L11.7478 13.9145C11.8025 13.9692 11.8768 14 11.9541 14C12.0313 14 12.1057 13.9692 12.1605 13.9145L13.9145 12.1603C14.0285 12.0463 14.0285 11.8615 13.9145 11.7476L9.16689 7.00007Z" fill="#D7D7D7"/>
</svg>
