<svg width="42" height="42" viewBox="0 0 42 42" fill="none" xmlns="http://www.w3.org/2000/svg">
<g filter="url(#filter0_b)">
<path fill-rule="evenodd" clip-rule="evenodd" d="M21.3229 42C32.7162 42 41.9524 32.7562 41.9524 21.3534C41.9524 9.95054 32.7162 0.706726 21.3229 0.706726C9.9295 0.706726 0.693359 9.95054 0.693359 21.3534C0.693359 32.7562 9.9295 42 21.3229 42Z" fill="#111111" fill-opacity="0.1"/>
</g>
<path opacity="0.8" fill-rule="evenodd" clip-rule="evenodd" d="M41.9524 21.3534C41.9524 32.7562 32.7162 42 21.3229 42C9.9295 42 0.693359 32.7562 0.693359 21.3534C0.693359 9.95054 9.9295 0.706726 21.3229 0.706726C32.7162 0.706726 41.9524 9.95054 41.9524 21.3534ZM33.1114 21.3534L14.8396 10.7351V31.9716L33.1114 21.3534Z" fill="white"/>
<defs>
<filter id="filter0_b" x="-12.898" y="-12.8847" width="68.4418" height="68.4761" filterUnits="userSpaceOnUse" color-interpolation-filters="sRGB">
<feFlood flood-opacity="0" result="BackgroundImageFix"/>
<feGaussianBlur in="BackgroundImage" stdDeviation="6.7957"/>
<feComposite in2="SourceAlpha" operator="in" result="effect1_backgroundBlur"/>
<feBlend mode="normal" in="SourceGraphic" in2="effect1_backgroundBlur" result="shape"/>
</filter>
</defs>
</svg>
