<svg width="44" height="40" viewBox="0 0 44 40" fill="none" xmlns="http://www.w3.org/2000/svg">
<path fill-rule="evenodd" clip-rule="evenodd" d="M8.15767 0.525618C7.4561 -0.175206 6.31864 -0.175206 5.61708 0.525618C4.91552 1.22644 4.91552 2.36271 5.61708 3.06353L34.9257 32.3413C35.6272 33.0421 36.7647 33.0421 37.4662 32.3413C38.1678 31.6404 38.1678 30.5042 37.4662 29.8033L33.1915 25.5331L33.1945 25.5292L30.6636 23.001L30.6606 23.0049L15.6636 8.02367C15.6655 8.02326 15.6674 8.02286 15.6693 8.02246L12.6791 5.03534C12.6773 5.03585 12.6755 5.03636 12.6737 5.03687L8.15767 0.525618ZM38.9119 12.3412L32.8789 20.1381L35.4095 22.666L44 11.5613C43.9665 11.5353 43.9209 11.4989 43.8634 11.4529L43.8632 11.4528C42.478 10.3464 34.1895 3.72617 22 3.72617C20.1933 3.72617 18.4724 3.8716 16.8469 4.12295L20.1384 7.41098C20.7478 7.37334 21.3688 7.35353 22.001 7.35353C29.4334 7.35353 35.3269 10.0922 38.9119 12.3412ZM5.44896 7.96662C2.57648 9.50414 0.727967 10.9806 0.136784 11.4528L0.136758 11.4528L0.136687 11.4528C0.0791285 11.4988 0.0334944 11.5353 0 11.5613L22 40L28.7637 31.2568L26.2322 28.728L22.001 34.1962L5.09 12.3412C5.96889 11.7898 6.98653 11.2091 8.13157 10.6464L5.44896 7.96662Z" fill="white"/>
</svg>
