<svg width="40" height="40" viewBox="0 0 40 40" fill="none" xmlns="http://www.w3.org/2000/svg">
<g clip-path="url(#clip0)">
<path d="M20 36.0228C28.8491 36.0228 36.0228 28.8491 36.0228 20C36.0228 11.1508 28.8491 3.97717 20 3.97717C11.1508 3.97717 3.97717 11.1508 3.97717 20C3.97717 28.8491 11.1508 36.0228 20 36.0228Z" fill="black"/>
<path d="M20 7.94983C22.3833 7.94983 24.7131 8.65656 26.6947 9.98065C28.6764 11.3047 30.2209 13.1867 31.1329 15.3886C32.045 17.5905 32.2836 20.0134 31.8186 22.3509C31.3537 24.6884 30.206 26.8355 28.5208 28.5208C26.8355 30.206 24.6884 31.3537 22.3509 31.8186C20.0134 32.2836 17.5905 32.045 15.3886 31.1329C13.1867 30.2209 11.3048 28.6764 9.98066 26.6947C8.65657 24.7131 7.94984 22.3833 7.94984 20C7.94924 18.4174 8.26052 16.8502 8.86588 15.3879C9.47125 13.9256 10.3588 12.597 11.4779 11.4779C12.597 10.3588 13.9256 9.47124 15.3879 8.86587C16.8502 8.26051 18.4174 7.94923 20 7.94983ZM20 0C16.0444 0 12.1776 1.17298 8.88861 3.37061C5.59962 5.56824 3.03617 8.69181 1.52242 12.3463C0.00866572 16.0009 -0.387401 20.0222 0.384303 23.9018C1.15601 27.7814 3.06082 31.3451 5.85787 34.1421C8.65493 36.9392 12.2186 38.844 16.0982 39.6157C19.9778 40.3874 23.9992 39.9913 27.6537 38.4776C31.3082 36.9638 34.4318 34.4004 36.6294 31.1114C38.827 27.8224 40 23.9556 40 20C39.994 14.6975 37.8849 9.61395 34.1355 5.86453C30.3861 2.11511 25.3025 0.00603584 20 0V0Z" fill="#FF2D55"/>
<path d="M11.5667 16.3877C14.2293 16.3877 16.3877 14.2293 16.3877 11.5667C16.3877 8.90415 14.2293 6.74573 11.5667 6.74573C8.90415 6.74573 6.74573 8.90415 6.74573 11.5667C6.74573 14.2293 8.90415 16.3877 11.5667 16.3877Z" fill="white"/>
</g>
<defs>
<clipPath id="clip0">
<rect width="40" height="40" fill="white"/>
</clipPath>
</defs>
</svg>
